<svg xmlns="http://www.w3.org/2000/svg" viewBox="0 0 100 100" width="100%" height="100%">
  <!-- Outer circle -->
  <circle cx="50" cy="50" r="42" fill="none" stroke="#1f1f1f" stroke-width="2.5" stroke-linecap="round" stroke-linejoin="round"/>
  <!-- Inner facet hexagon -->
  <polygon points="74,50 62,70.78 38,70.78 26,50 38,29.22 62,29.22" fill="none" stroke="#1f1f1f" stroke-width="1.8" stroke-linecap="round" stroke-linejoin="round"/>
  <!-- Center star lines -->
  <line x1="50" y1="50" x2="74" y2="50" stroke="#1f1f1f" stroke-width="1.5"/>
  <line x1="50" y1="50" x2="62" y2="70.78" stroke="#1f1f1f" stroke-width="1.5"/>
  <line x1="50" y1="50" x2="38" y2="70.78" stroke="#1f1f1f" stroke-width="1.5"/>
  <line x1="50" y1="50" x2="26" y2="50" stroke="#1f1f1f" stroke-width="1.5"/>
  <line x1="50" y1="50" x2="38" y2="29.22" stroke="#1f1f1f" stroke-width="1.5"/>
  <line x1="50" y1="50" x2="62" y2="29.22" stroke="#1f1f1f" stroke-width="1.5"/>
  <!-- Outer radiating facet triangles -->
  <line x1="74" y1="50" x2="92" y2="50" stroke="#1f1f1f" stroke-width="1.5"/>
  <line x1="62" y1="70.78" x2="71" y2="86.37" stroke="#1f1f1f" stroke-width="1.5"/>
  <line x1="38" y1="70.78" x2="29" y2="86.37" stroke="#1f1f1f" stroke-width="1.5"/>
  <line x1="26" y1="50" x2="8" y2="50" stroke="#1f1f1f" stroke-width="1.5"/>
  <line x1="38" y1="29.22" x2="29" y2="13.63" stroke="#1f1f1f" stroke-width="1.5"/>
  <line x1="62" y1="29.22" x2="71" y2="13.63" stroke="#1f1f1f" stroke-width="1.5"/>
  <!-- Additional diagonal facet connectors -->
  <line x1="74" y1="50" x2="71" y2="86.37" stroke="#1f1f1f" stroke-width="1.2"/>
  <line x1="62" y1="70.78" x2="92" y2="50" stroke="#1f1f1f" stroke-width="1.2"/>
  <line x1="62" y1="70.78" x2="29" y2="86.37" stroke="#1f1f1f" stroke-width="1.2"/>
  <line x1="38" y1="70.78" x2="71" y2="86.37" stroke="#1f1f1f" stroke-width="1.2"/>
  <line x1="38" y1="70.78" x2="8" y2="50" stroke="#1f1f1f" stroke-width="1.2"/>
  <line x1="26" y1="50" x2="29" y2="86.37" stroke="#1f1f1f" stroke-width="1.2"/>
  <line x1="26" y1="50" x2="29" y2="13.63" stroke="#1f1f1f" stroke-width="1.2"/>
  <line x1="38" y1="29.22" x2="8" y2="50" stroke="#1f1f1f" stroke-width="1.2"/>
  <line x1="38" y1="29.22" x2="71" y2="13.63" stroke="#1f1f1f" stroke-width="1.2"/>
  <line x1="62" y1="29.22" x2="29" y2="13.63" stroke="#1f1f1f" stroke-width="1.2"/>
  <line x1="62" y1="29.22" x2="92" y2="50" stroke="#1f1f1f" stroke-width="1.2"/>
  <line x1="74" y1="50" x2="71" y2="13.63" stroke="#1f1f1f" stroke-width="1.2"/>
</svg>