<svg xmlns="http://www.w3.org/2000/svg" enable-background="new 0 0 64 64" viewBox="0 0 64 64" id="trillion-diamond"><path d="M2.454,56.205C11.998,59.387,21.939,61,32,61s20.002-1.613,29.546-4.795l0.77-0.257c0.486-0.162,0.771-0.665,0.66-1.165   C59.01,36.934,50.079,20.665,37.149,7.735l-4.442-4.442c-0.391-0.391-1.023-0.391-1.414,0l-4.442,4.442   C13.921,20.665,4.99,36.934,1.024,54.783c-0.111,0.5,0.174,1.003,0.66,1.165L2.454,56.205z M32,20.226   c3.794,2.656,7.362,5.64,10.659,8.902c1.721,4.857,3.038,9.861,3.933,14.937C42.493,47.202,37.402,49,32,49   c-5.402,0-10.493-1.798-14.592-4.935c0.895-5.076,2.212-10.081,3.933-14.937C24.638,25.866,28.206,22.882,32,20.226z M32,54.96   l-8.723-2.492L32,51.014l8.723,1.454L32,54.96z M16.397,51.587c0.165-1.779,0.38-3.554,0.649-5.322   c2.482,1.745,5.265,3.049,8.236,3.841L16.397,51.587z M38.718,50.106c2.971-0.792,5.754-2.096,8.236-3.841   c0.268,1.768,0.484,3.543,0.649,5.322L38.718,50.106z M48.761,44.872c1.391-1.173,2.659-2.496,3.785-3.952   c1.456,2.107,2.819,4.277,4.069,6.51l3.496,6.242l-10.47-1.745C49.435,49.566,49.144,47.212,48.761,44.872z M48.356,42.562   c-0.642-3.394-1.466-6.754-2.472-10.058c1.933,2.141,3.755,4.382,5.454,6.711C50.446,40.43,49.446,41.547,48.356,42.562z    M15.644,42.562c-1.089-1.015-2.09-2.132-2.981-3.347c1.699-2.329,3.521-4.57,5.454-6.711   C17.11,35.808,16.285,39.168,15.644,42.562z M15.239,44.872c-0.383,2.341-0.674,4.694-0.88,7.054L3.89,53.671l3.496-6.242   c1.25-2.232,2.612-4.402,4.068-6.509C12.58,42.376,13.849,43.699,15.239,44.872z M14.202,53.98c-0.07,1.079-0.12,2.158-0.152,3.238   c-2.613-0.524-5.205-1.165-7.771-1.918L14.202,53.98z M16.226,53.643l2.451-0.408L31,56.755v2.225   c-5.033-0.055-10.03-0.525-14.96-1.399C16.075,56.268,16.134,54.955,16.226,53.643z M33,56.755l12.323-3.521l2.451,0.408   c0.092,1.312,0.151,2.625,0.186,3.938c-4.93,0.874-9.927,1.344-14.96,1.399V56.755z M49.798,53.98l7.923,1.32   c-2.566,0.753-5.157,1.394-7.771,1.918C49.917,56.138,49.868,55.059,49.798,53.98z M58.359,46.453   c-1.399-2.498-2.935-4.92-4.585-7.263c0.438-0.674,0.853-1.365,1.231-2.084c1.521,3.389,2.849,6.871,3.963,10.435L58.359,46.453z    M52.519,37.453c-2.472-3.33-5.19-6.479-8.122-9.413c-1.249-3.473-2.694-6.871-4.341-10.165l-1.296-2.592l1.593-1.168   c5.433,6.275,9.979,13.218,13.562,20.645C53.5,35.693,53.038,36.595,52.519,37.453z M38.267,18.77   c0.993,1.986,1.905,4.013,2.751,6.07c-2.326-2.086-4.767-4.042-7.308-5.853l3.414-2.503L38.267,18.77z M32,17.76l-4.216-3.092   L32,6.236l4.216,8.432L32,17.76z M30.29,18.987c-2.542,1.812-4.982,3.767-7.308,5.853c0.846-2.056,1.758-4.084,2.751-6.07   l1.143-2.287L30.29,18.987z M23.944,17.875c-1.647,3.293-3.092,6.692-4.341,10.165c-2.932,2.935-5.65,6.084-8.123,9.413   c-0.519-0.858-0.981-1.76-1.396-2.693c3.583-7.427,8.13-14.37,13.562-20.645l1.593,1.168L23.944,17.875z M10.225,39.19   c-1.65,2.344-3.186,4.765-4.585,7.263l-0.609,1.088c1.114-3.564,2.442-7.045,3.963-10.435C9.372,37.826,9.787,38.517,10.225,39.19z    M39.013,12.617l-1.161,0.851L35.65,9.064l0.085,0.085C36.863,10.277,37.948,11.439,39.013,12.617z M28.265,9.149l0.085-0.085   l-2.202,4.404l-1.161-0.851C26.052,11.439,27.137,10.277,28.265,9.149z" fill="#000000"></path></svg>